# xmcd
#
# Track frame offsets: 
#        150
#        18214
#        36968
#        50899
#        70774
#        89390
#        105065
#        119271
#        138714
#        154162
#
# Disc length: 2459 seconds
#
# Revision: 2
# Processed by: cddbd v1.5.2PL0 Copyright (c) Steve Scherf et al.
# Submitted via: ExactAudioCopy v1.3
#
DISCID=8009990a
DTITLE=Various Artist - マジカルミライ2017 OFFICIAL ALBUM
DYEAR=2017
DGENRE=VOCALOID
TTITLE0=ハチ feat.初音ミク - 砂の惑星
TTITLE1=keisei feat.初音ミク - Singularity
TTITLE2=ナユタン星人 feat.初音ミク - エイリアンエイリアン
TTITLE3=光収容 feat.鏡音リン - 孤独の果て
TTITLE4=とあ feat.初音ミク - ツギハギスタッカート
TTITLE5=アゴアニキ feat.巡音ルカ - ダブルラリアット
TTITLE6=Neru feat.鏡音レン - 脱法ロック
TTITLE7=ryuryu feat.初音ミク - Birthday
TTITLE8=livetune feat.初音ミク - DECORATOR
TTITLE9=八王子P feat.初音ミク - マジカルミライSPECIAL MEGAMIX（「ネクストネスト」「Hand in Hand
TTITLE9=」「39みゅーじっく」）
EXTD=
EXTT0=
EXTT1=
EXTT2=
EXTT3=
EXTT4=
EXTT5=
EXTT6=
EXTT7=
EXTT8=
EXTT9=
PLAYORDER=
